<svg width="13" height="13" viewBox="0 0 13 13" fill="none" xmlns="http://www.w3.org/2000/svg">
<path id="Arrow_Forward" fill-rule="evenodd" clip-rule="evenodd" d="M12.7333 0.266921C12.6293 0.162907 12.4871 0.10642 12.341 0.102913L4.58942 0.0639574C4.28322 0.0623991 4.03702 0.309384 4.03857 0.614803C4.03974 0.920612 4.28906 1.16993 4.59487 1.1711L11.0102 1.20305L0.263296 11.95C0.0482556 12.165 0.0498141 12.5156 0.267192 12.733C0.484569 12.9504 0.835177 12.9519 1.05022 12.7369L11.7968 1.99036L11.8291 8.40533C11.8303 8.71114 12.08 8.96007 12.3854 8.96163C12.6912 8.9628 12.9378 8.7162 12.9362 8.41078L12.8973 0.659212C12.8965 0.512735 12.8353 0.371325 12.7333 0.266921Z" fill="white"/>
</svg>
