<svg width="13" height="14" viewBox="0 0 13 14" fill="none" xmlns="http://www.w3.org/2000/svg">
<path id="Arrow_Forward" fill-rule="evenodd" clip-rule="evenodd" d="M12.6294 1.13707C12.5316 1.03923 12.3978 0.9861 12.2604 0.982801L4.96893 0.946158C4.6809 0.944692 4.44931 1.17702 4.45078 1.46431C4.45188 1.75196 4.6864 1.98649 4.97406 1.98759L11.0086 2.01763L0.899589 12.1267C0.697313 12.3289 0.698779 12.6587 0.903253 12.8632C1.10773 13.0677 1.43753 13.0692 1.6398 12.8669L11.7485 2.75821L11.7789 8.79241C11.78 9.08007 12.0149 9.31422 12.3022 9.31569C12.5898 9.31679 12.8218 9.08483 12.8203 8.79754L12.7837 1.50608C12.7829 1.3683 12.7254 1.23528 12.6294 1.13707Z" fill="#C9171E"/>
</svg>
